{"title":"[ShepardTDS] Psycho-Pass Dual Audio [720p 8-bit x265 HEVC] 1-22","uid":12675943,"size":3892073592,"categoryP":"video","categoryS":"tv_shows","magnet":"?xt=urn:btih:d0e5c7c9b0f6f88caa5bafa692a5a9fc03f6db76&amp;dn=%5BShepardTDS%5D+Psycho-Pass+Dual+Audio+%5B720p+8-bit+x265+HEVC%5D+1-22+&amp;tr=udp%3A%2F%2Ftracker.leechers-paradise.org%3A6969&amp;tr=udp%3A%2F%2Fzer0day.ch%3A1337&amp;tr=udp%3A%2F%2Fopen.demonii.com%3A1337&amp;tr=udp%3A%2F%2Ftracker.coppersurfer.tk%3A6969&amp;tr=udp%3A%2F%2Fexodus.desync.com%3A6969","seeders":1,"leechers":0,"uploader":"ShepardTDS","files":22,"time":1446503461,"description":"Constant Quality encoding.\r\nVariable Bit rates\r\nBlu-Ray Source\r\n\r\n\r\nGeneral\r\n\r\nFormat : Matroska\r\nFile size : 134 MiB-198 MiB\r\nDuration : 22mn 51s\r\nOverall bit rate : 820 Kbps-1,212 Kbps\r\nEncoded date : UTC 2015-11-01 15:43:56\r\nWriting application : mkvmerge v7.7.0 ('Six Voices') 32bit built on Feb 28 2015 23:23:00\r\nWriting library : libebml v1.3.1 + libmatroska v1.4.2\r\n\r\nVideo\r\nID : 1\r\nFormat : V_MPEGH/ISO/HEVC\r\nCodec ID : V_MPEGH/ISO/HEVC\r\nDuration : 22mn 51s\r\nBit rate : 419 Kbps-804 Kbps\r\nWidth : 1 280 pixels\r\nHeight : 720 pixels\r\nDisplay aspect ratio : 16:9\r\nFrame rate : 23.976 fps\r\nBits/(Pixel*Frame) : 0.019\r\nStream size : 68.6 MiB (51%)\r\n\r\nAudio #1\r\nID : 2\r\nFormat : AC-3\r\nFormat/Info : Audio Coding 3\r\nMode extension : CM (complete main)\r\nCodec ID : A_AC3\r\nDuration : 22mn 51s\r\nBit rate mode : Constant\r\nBit rate : 192 Kbps\r\nChannel(s) : 6 channels\r\nChannel positions : Front: L C R, Side: L R, LFE\r\nSampling rate : 48.0 KHz\r\nBit depth : 16 bits\r\nCompression mode : Lossy\r\nStream size : 31.4 MiB (23%)\r\nLanguage : English\r\n\r\nAudio #2\r\nID : 3\r\nFormat : AC-3\r\nFormat/Info : Audio Coding 3\r\nMode extension : CM (complete main)\r\nCodec ID : A_AC3\r\nDuration : 22mn 51s\r\nBit rate mode : Constant\r\nBit rate : 192 Kbps\r\nChannel(s) : 2 channels\r\nChannel positions : Front: L R\r\nSampling rate : 48.0 KHz\r\nBit depth : 16 bits\r\nCompression mode : Lossy\r\nStream size : 31.4 MiB (23%)\r\nLanguage : Japanese\r\n\r\nText\r\nID : 4\r\nFormat : PGS\r\nMuxing mode : zlib\r\nCodec ID : S_HDMV/PGS\r\nCodec ID/Info : The same subtitle format used on BDs/HD-DVDs\r\nLanguage : English\r\n\r\nMenu\r\n00:00:50.049 : en:Chapter 01\r\n00:02:20.056 : en:Chapter 02\r\n00:11:21.972 : en:Chapter 03\r\n00:21:12.771 : en:Chapter 04","torrent":{"xt":"urn:btih:d0e5c7c9b0f6f88caa5bafa692a5a9fc03f6db76","amp;dn":"%5BShepardTDS%5D+Psycho-Pass+Dual+Audio+%5B720p+8-bit+x265+HEVC%5D+1-22+","amp;tr":["udp%3A%2F%2Ftracker.leechers-paradise.org%3A6969","udp%3A%2F%2Fzer0day.ch%3A1337","udp%3A%2F%2Fopen.demonii.com%3A1337","udp%3A%2F%2Ftracker.coppersurfer.tk%3A6969","udp%3A%2F%2Fexodus.desync.com%3A6969"],"infoHash":"d0e5c7c9b0f6f88caa5bafa692a5a9fc03f6db76","infoHashBuffer":{"type":"Buffer","data":[208,229,199,201,176,246,248,140,170,91,175,166,146,165,169,252,3,246,219,118]},"announce":[],"urlList":[]}}